<mxfile host="app.diagrams.net" modified="2024-07-11T00:44:09.746Z" agent="Mozilla/5.0 (X11; Linux x86_64; rv:127.0) Gecko/20100101 Firefox/127.0" etag="xWB7XbGUABrEjb-1Pj0_" version="24.6.4" type="github" pages="2">
  <diagram name="Firewall" id="c37626ed-c26b-45fb-9056-f9ebc6bb27b6">
    <mxGraphModel dx="1419" dy="719" grid="1" gridSize="10" guides="1" tooltips="1" connect="1" arrows="1" fold="1" page="1" pageScale="1" pageWidth="1100" pageHeight="850" background="none" math="0" shadow="0">
      <root>
        <mxCell id="0" />
        <mxCell id="1" parent="0" />
        <mxCell id="4pkH0n5TeCM1CugvsYnv-12" value="" style="group;fillColor=none;" parent="1" vertex="1" connectable="0">
          <mxGeometry width="1680" height="850" as="geometry" />
        </mxCell>
        <mxCell id="4pkH0n5TeCM1CugvsYnv-13" value="" style="rounded=1;whiteSpace=wrap;html=1;fillColor=none;arcSize=1;strokeColor=#FF6666;" parent="4pkH0n5TeCM1CugvsYnv-12" vertex="1">
          <mxGeometry width="1680" height="850" as="geometry" />
        </mxCell>
        <mxCell id="4pkH0n5TeCM1CugvsYnv-14" value="Home" style="text;html=1;align=center;verticalAlign=middle;resizable=0;points=[];autosize=1;strokeColor=none;fillColor=none;" parent="4pkH0n5TeCM1CugvsYnv-12" vertex="1">
          <mxGeometry x="0.0031392089691690667" y="10" width="60" height="30" as="geometry" />
        </mxCell>
        <mxCell id="4pkH0n5TeCM1CugvsYnv-3" value="" style="group" parent="1" vertex="1" connectable="0">
          <mxGeometry x="40" y="620" width="570" height="160" as="geometry" />
        </mxCell>
        <mxCell id="4pkH0n5TeCM1CugvsYnv-4" value="" style="rounded=1;whiteSpace=wrap;html=1;fillColor=#b0e3e6;strokeColor=#0e8088;arcSize=13;" parent="4pkH0n5TeCM1CugvsYnv-3" vertex="1">
          <mxGeometry width="570" height="160.00000000000003" as="geometry" />
        </mxCell>
        <mxCell id="4pkH0n5TeCM1CugvsYnv-5" value="VLAN - User" style="text;html=1;align=center;verticalAlign=middle;resizable=0;points=[];autosize=1;strokeColor=none;fillColor=none;" parent="4pkH0n5TeCM1CugvsYnv-3" vertex="1">
          <mxGeometry width="90" height="30" as="geometry" />
        </mxCell>
        <mxCell id="4pkH0n5TeCM1CugvsYnv-1" value="" style="fontColor=#0066CC;verticalAlign=top;verticalLabelPosition=bottom;labelPosition=center;align=center;html=1;outlineConnect=0;fillColor=#CCCCCC;strokeColor=#6881B3;gradientColor=none;gradientDirection=north;strokeWidth=2;shape=mxgraph.networks.users;" parent="4pkH0n5TeCM1CugvsYnv-3" vertex="1">
          <mxGeometry x="110" y="40" width="70" height="80" as="geometry" />
        </mxCell>
        <mxCell id="4pkH0n5TeCM1CugvsYnv-6" value="z" style="group" parent="1" vertex="1" connectable="0">
          <mxGeometry x="990" y="200" width="570" height="160" as="geometry" />
        </mxCell>
        <mxCell id="4pkH0n5TeCM1CugvsYnv-7" value="" style="rounded=1;whiteSpace=wrap;html=1;fillColor=#fad9d5;strokeColor=#ae4132;arcSize=13;" parent="4pkH0n5TeCM1CugvsYnv-6" vertex="1">
          <mxGeometry width="570" height="160.00000000000003" as="geometry" />
        </mxCell>
        <mxCell id="4pkH0n5TeCM1CugvsYnv-8" value="VLAN - IoT" style="text;html=1;align=center;verticalAlign=middle;resizable=0;points=[];autosize=1;strokeColor=none;fillColor=none;" parent="4pkH0n5TeCM1CugvsYnv-6" vertex="1">
          <mxGeometry width="80" height="30" as="geometry" />
        </mxCell>
        <mxCell id="4pkH0n5TeCM1CugvsYnv-16" value="HP Printer" style="fontColor=#0066CC;verticalAlign=top;verticalLabelPosition=bottom;labelPosition=center;align=center;html=1;outlineConnect=0;fillColor=#CCCCCC;strokeColor=#6881B3;gradientColor=none;gradientDirection=north;strokeWidth=2;shape=mxgraph.networks.printer;" parent="4pkH0n5TeCM1CugvsYnv-6" vertex="1">
          <mxGeometry x="130" y="30" width="60" height="70" as="geometry" />
        </mxCell>
        <mxCell id="4pkH0n5TeCM1CugvsYnv-17" value="Hatch" style="html=1;verticalLabelPosition=bottom;align=center;labelBackgroundColor=#ffffff;verticalAlign=top;strokeWidth=2;strokeColor=#0080F0;shadow=0;dashed=0;shape=mxgraph.ios7.icons.lightbulb;" parent="4pkH0n5TeCM1CugvsYnv-6" vertex="1">
          <mxGeometry x="260" y="40.079999999999984" width="40" height="49.85" as="geometry" />
        </mxCell>
        <mxCell id="4pkH0n5TeCM1CugvsYnv-18" value="&lt;div&gt;3D&lt;/div&gt;&lt;div&gt;Printer&lt;br&gt;&lt;/div&gt;" style="rounded=1;whiteSpace=wrap;html=1;" parent="4pkH0n5TeCM1CugvsYnv-6" vertex="1">
          <mxGeometry x="370" y="30" width="90" height="75" as="geometry" />
        </mxCell>
        <mxCell id="4pkH0n5TeCM1CugvsYnv-25" value="" style="group;fillColor=none;strokeColor=#b46504;" parent="4pkH0n5TeCM1CugvsYnv-6" vertex="1" connectable="0">
          <mxGeometry x="80" y="15" width="160" height="130" as="geometry" />
        </mxCell>
        <mxCell id="4pkH0n5TeCM1CugvsYnv-26" value="" style="rounded=1;whiteSpace=wrap;html=1;fillColor=none;arcSize=1;strokeColor=#FF6666;" parent="4pkH0n5TeCM1CugvsYnv-25" vertex="1">
          <mxGeometry width="160" height="130" as="geometry" />
        </mxCell>
        <mxCell id="4pkH0n5TeCM1CugvsYnv-27" value="Printers" style="text;html=1;align=center;verticalAlign=middle;resizable=0;points=[];autosize=1;strokeColor=none;fillColor=none;" parent="4pkH0n5TeCM1CugvsYnv-25" vertex="1">
          <mxGeometry x="-1.4035087719298245" width="60" height="30" as="geometry" />
        </mxCell>
        <mxCell id="4pkH0n5TeCM1CugvsYnv-9" value="" style="group" parent="1" vertex="1" connectable="0">
          <mxGeometry x="990" y="620" width="570" height="160" as="geometry" />
        </mxCell>
        <mxCell id="4pkH0n5TeCM1CugvsYnv-10" value="" style="rounded=1;whiteSpace=wrap;html=1;fillColor=#fad7ac;strokeColor=#b46504;arcSize=13;" parent="4pkH0n5TeCM1CugvsYnv-9" vertex="1">
          <mxGeometry width="570" height="160.00000000000003" as="geometry" />
        </mxCell>
        <mxCell id="4pkH0n5TeCM1CugvsYnv-11" value="VLAN - IPCAM" style="text;html=1;align=center;verticalAlign=middle;resizable=0;points=[];autosize=1;strokeColor=none;fillColor=none;" parent="4pkH0n5TeCM1CugvsYnv-9" vertex="1">
          <mxGeometry width="100" height="30" as="geometry" />
        </mxCell>
        <mxCell id="4pkH0n5TeCM1CugvsYnv-15" value="" style="fontColor=#0066CC;verticalAlign=top;verticalLabelPosition=bottom;labelPosition=center;align=center;html=1;outlineConnect=0;fillColor=#CCCCCC;strokeColor=#6881B3;gradientColor=none;gradientDirection=north;strokeWidth=2;shape=mxgraph.networks.security_camera;" parent="4pkH0n5TeCM1CugvsYnv-9" vertex="1">
          <mxGeometry x="190" y="57.5" width="70" height="45" as="geometry" />
        </mxCell>
        <mxCell id="4pkH0n5TeCM1CugvsYnv-51" value="" style="rounded=1;whiteSpace=wrap;html=1;fillColor=none;arcSize=1;strokeColor=#FF6666;" parent="4pkH0n5TeCM1CugvsYnv-9" vertex="1">
          <mxGeometry x="145" y="15" width="160" height="130" as="geometry" />
        </mxCell>
        <mxCell id="4pkH0n5TeCM1CugvsYnv-52" value="IP Cameras" style="text;html=1;align=center;verticalAlign=middle;resizable=0;points=[];autosize=1;strokeColor=none;fillColor=none;" parent="4pkH0n5TeCM1CugvsYnv-9" vertex="1">
          <mxGeometry x="139.99649122807023" y="15" width="90" height="30" as="geometry" />
        </mxCell>
        <mxCell id="Taq88KEqufd_rW_u-Mmz-4" value="" style="group" parent="1" vertex="1" connectable="0">
          <mxGeometry x="40" y="200" width="570" height="160" as="geometry" />
        </mxCell>
        <mxCell id="Taq88KEqufd_rW_u-Mmz-2" value="" style="rounded=1;whiteSpace=wrap;html=1;fillColor=#b0e3e6;strokeColor=#0e8088;arcSize=13;" parent="Taq88KEqufd_rW_u-Mmz-4" vertex="1">
          <mxGeometry width="570" height="160.00000000000003" as="geometry" />
        </mxCell>
        <mxCell id="Taq88KEqufd_rW_u-Mmz-3" value="LAN" style="text;html=1;align=center;verticalAlign=middle;resizable=0;points=[];autosize=1;strokeColor=none;fillColor=none;" parent="Taq88KEqufd_rW_u-Mmz-4" vertex="1">
          <mxGeometry width="50" height="30" as="geometry" />
        </mxCell>
        <mxCell id="4pkH0n5TeCM1CugvsYnv-43" value="AppSrvPrd" style="image;aspect=fixed;perimeter=ellipsePerimeter;html=1;align=center;shadow=0;dashed=0;spacingTop=3;image=img/lib/active_directory/generic_server.svg;" parent="Taq88KEqufd_rW_u-Mmz-4" vertex="1">
          <mxGeometry x="420" y="30" width="28.000000000000004" height="50" as="geometry" />
        </mxCell>
        <mxCell id="4pkH0n5TeCM1CugvsYnv-2" value="Nic" style="fontColor=#0066CC;verticalAlign=top;verticalLabelPosition=bottom;labelPosition=center;align=center;html=1;outlineConnect=0;fillColor=#CCCCCC;strokeColor=#6881B3;gradientColor=none;gradientDirection=north;strokeWidth=2;shape=mxgraph.networks.user_male;" parent="Taq88KEqufd_rW_u-Mmz-4" vertex="1">
          <mxGeometry x="60" y="30" width="30" height="74.84" as="geometry" />
        </mxCell>
        <mxCell id="PnRXNIRMhMOjnLRFqVWO-1" value="" style="group;fillColor=none;strokeColor=#b46504;" vertex="1" connectable="0" parent="Taq88KEqufd_rW_u-Mmz-4">
          <mxGeometry x="140" y="15" width="250" height="130" as="geometry" />
        </mxCell>
        <mxCell id="PnRXNIRMhMOjnLRFqVWO-2" value="" style="rounded=1;whiteSpace=wrap;html=1;fillColor=none;arcSize=1;strokeColor=#FF6666;" vertex="1" parent="PnRXNIRMhMOjnLRFqVWO-1">
          <mxGeometry width="250" height="130" as="geometry" />
        </mxCell>
        <mxCell id="PnRXNIRMhMOjnLRFqVWO-3" value="LANButShouldBeIOT" style="text;html=1;align=center;verticalAlign=middle;resizable=0;points=[];autosize=1;strokeColor=none;fillColor=none;" vertex="1" parent="PnRXNIRMhMOjnLRFqVWO-1">
          <mxGeometry x="-0.002982456140344425" width="140" height="30" as="geometry" />
        </mxCell>
        <mxCell id="PnRXNIRMhMOjnLRFqVWO-4" value="Amcrest Doorbell" style="fontColor=#0066CC;verticalAlign=top;verticalLabelPosition=bottom;labelPosition=center;align=center;html=1;outlineConnect=0;fillColor=#CCCCCC;strokeColor=#6881B3;gradientColor=none;gradientDirection=north;strokeWidth=2;shape=mxgraph.networks.security_camera;" vertex="1" parent="PnRXNIRMhMOjnLRFqVWO-1">
          <mxGeometry x="20" y="30" width="70" height="50" as="geometry" />
        </mxCell>
        <mxCell id="PnRXNIRMhMOjnLRFqVWO-6" value="Traegar Grill" style="shape=image;html=1;verticalAlign=top;verticalLabelPosition=bottom;labelBackgroundColor=#ffffff;imageAspect=0;aspect=fixed;image=https://cdn0.iconfinder.com/data/icons/fastfood-30/64/chicken-fries-fast-food-fastfood-thigh-grill-128.png" vertex="1" parent="PnRXNIRMhMOjnLRFqVWO-1">
          <mxGeometry x="160" y="25.5" width="59" height="59" as="geometry" />
        </mxCell>
        <mxCell id="PnRXNIRMhMOjnLRFqVWO-7" style="edgeStyle=orthogonalEdgeStyle;rounded=0;orthogonalLoop=1;jettySize=auto;html=1;entryX=0.5;entryY=0;entryDx=0;entryDy=0;" edge="1" parent="Taq88KEqufd_rW_u-Mmz-4" source="PnRXNIRMhMOjnLRFqVWO-2" target="Taq88KEqufd_rW_u-Mmz-2">
          <mxGeometry relative="1" as="geometry">
            <Array as="points">
              <mxPoint x="265" y="-90" />
              <mxPoint x="285" y="-90" />
            </Array>
          </mxGeometry>
        </mxCell>
        <mxCell id="PnRXNIRMhMOjnLRFqVWO-8" value="&lt;div&gt;DENY */*&lt;/div&gt;&lt;div&gt;Desc: Stop some devices on&amp;nbsp;&lt;/div&gt;&lt;div&gt;&amp;nbsp;&amp;nbsp;&amp;nbsp;&amp;nbsp;&amp;nbsp;&amp;nbsp;&amp;nbsp;&amp;nbsp;&amp;nbsp;&amp;nbsp;&amp;nbsp;&amp;nbsp; LAN from connecting to&amp;nbsp;&lt;/div&gt;&lt;div&gt;&amp;nbsp;any LAN devices&lt;br&gt;&lt;/div&gt;" style="edgeLabel;html=1;align=center;verticalAlign=middle;resizable=0;points=[];" vertex="1" connectable="0" parent="PnRXNIRMhMOjnLRFqVWO-7">
          <mxGeometry x="0.0326" y="1" relative="1" as="geometry">
            <mxPoint x="-76" y="31" as="offset" />
          </mxGeometry>
        </mxCell>
        <mxCell id="4pkH0n5TeCM1CugvsYnv-19" value="" style="group;fillColor=none;" parent="1" vertex="1" connectable="0">
          <mxGeometry x="20" y="580" width="610" height="230" as="geometry" />
        </mxCell>
        <mxCell id="4pkH0n5TeCM1CugvsYnv-20" value="" style="rounded=1;whiteSpace=wrap;html=1;fillColor=none;arcSize=1;strokeColor=#FF6666;" parent="4pkH0n5TeCM1CugvsYnv-19" vertex="1">
          <mxGeometry width="610" height="230" as="geometry" />
        </mxCell>
        <mxCell id="4pkH0n5TeCM1CugvsYnv-21" value="Not Available Yet" style="text;html=1;align=center;verticalAlign=middle;resizable=0;points=[];autosize=1;strokeColor=none;fillColor=none;rotation=10;fontSize=50;" parent="4pkH0n5TeCM1CugvsYnv-19" vertex="1">
          <mxGeometry x="129.99912280701753" y="30" width="400" height="70" as="geometry" />
        </mxCell>
        <mxCell id="4pkH0n5TeCM1CugvsYnv-29" value="internet" style="image;aspect=fixed;perimeter=ellipsePerimeter;html=1;align=center;shadow=0;dashed=0;spacingTop=3;image=img/lib/active_directory/internet_cloud.svg;" parent="1" vertex="1">
          <mxGeometry x="780.31" y="450" width="79.37" height="50" as="geometry" />
        </mxCell>
        <mxCell id="4pkH0n5TeCM1CugvsYnv-34" style="edgeStyle=orthogonalEdgeStyle;rounded=0;orthogonalLoop=1;jettySize=auto;html=1;entryX=0.767;entryY=-0.135;entryDx=0;entryDy=0;entryPerimeter=0;" parent="1" source="4pkH0n5TeCM1CugvsYnv-7" target="4pkH0n5TeCM1CugvsYnv-29" edge="1">
          <mxGeometry relative="1" as="geometry">
            <Array as="points">
              <mxPoint x="1060" y="420" />
              <mxPoint x="841" y="420" />
            </Array>
          </mxGeometry>
        </mxCell>
        <mxCell id="4pkH0n5TeCM1CugvsYnv-35" value="&lt;div&gt;Port/Protocol: */*&lt;/div&gt;&lt;div&gt;Desc: IoT to internet&lt;br&gt;&lt;/div&gt;" style="edgeLabel;html=1;align=center;verticalAlign=middle;resizable=0;points=[];" parent="4pkH0n5TeCM1CugvsYnv-34" vertex="1" connectable="0">
          <mxGeometry x="-0.2497" relative="1" as="geometry">
            <mxPoint x="17" y="-25" as="offset" />
          </mxGeometry>
        </mxCell>
        <mxCell id="4pkH0n5TeCM1CugvsYnv-41" style="edgeStyle=orthogonalEdgeStyle;rounded=0;orthogonalLoop=1;jettySize=auto;html=1;exitX=0.5;exitY=0;exitDx=0;exitDy=0;entryX=1;entryY=0.5;entryDx=0;entryDy=0;endArrow=classic;endFill=1;startArrow=classic;startFill=1;" parent="1" source="4pkH0n5TeCM1CugvsYnv-26" target="4pkH0n5TeCM1CugvsYnv-43" edge="1">
          <mxGeometry relative="1" as="geometry">
            <Array as="points">
              <mxPoint x="1150" y="130" />
              <mxPoint x="794" y="130" />
              <mxPoint x="794" y="255" />
            </Array>
          </mxGeometry>
        </mxCell>
        <mxCell id="4pkH0n5TeCM1CugvsYnv-42" value="&lt;div&gt;Port/Protocol: 445/TCP&lt;/div&gt;&lt;div&gt;Desc: For scanning over SMB&lt;br&gt;&lt;/div&gt;" style="edgeLabel;html=1;align=center;verticalAlign=middle;resizable=0;points=[];" parent="4pkH0n5TeCM1CugvsYnv-41" vertex="1" connectable="0">
          <mxGeometry x="-0.3328" y="-1" relative="1" as="geometry">
            <mxPoint as="offset" />
          </mxGeometry>
        </mxCell>
        <mxCell id="4pkH0n5TeCM1CugvsYnv-44" style="edgeStyle=orthogonalEdgeStyle;rounded=0;orthogonalLoop=1;jettySize=auto;html=1;entryX=1;entryY=0.5;entryDx=0;entryDy=0;endArrow=classic;endFill=1;startArrow=classic;startFill=1;exitX=0.5;exitY=0;exitDx=0;exitDy=0;" parent="1" source="4pkH0n5TeCM1CugvsYnv-26" target="4pkH0n5TeCM1CugvsYnv-43" edge="1">
          <mxGeometry relative="1" as="geometry">
            <mxPoint x="1090" y="115" as="sourcePoint" />
            <Array as="points">
              <mxPoint x="1150" y="170" />
              <mxPoint x="800" y="170" />
              <mxPoint x="800" y="255" />
            </Array>
          </mxGeometry>
        </mxCell>
        <mxCell id="4pkH0n5TeCM1CugvsYnv-45" value="&lt;div&gt;Port/Protocol: 139/TCP&lt;/div&gt;&lt;div&gt;Desc: For scanning over SMB&lt;br&gt;&lt;/div&gt;" style="edgeLabel;html=1;align=center;verticalAlign=middle;resizable=0;points=[];" parent="4pkH0n5TeCM1CugvsYnv-44" vertex="1" connectable="0">
          <mxGeometry x="-0.4593" y="-1" relative="1" as="geometry">
            <mxPoint as="offset" />
          </mxGeometry>
        </mxCell>
        <mxCell id="VGItp7bEPMrswfuvoWM3-1" style="edgeStyle=orthogonalEdgeStyle;rounded=0;orthogonalLoop=1;jettySize=auto;html=1;exitX=1;exitY=0.75;exitDx=0;exitDy=0;entryX=0;entryY=0.5;entryDx=0;entryDy=0;" parent="1" source="Taq88KEqufd_rW_u-Mmz-2" target="4pkH0n5TeCM1CugvsYnv-29" edge="1">
          <mxGeometry relative="1" as="geometry" />
        </mxCell>
        <mxCell id="VGItp7bEPMrswfuvoWM3-2" value="&lt;div&gt;Port/Protocol: */*&lt;/div&gt;&lt;div&gt;Desc: LAN to anything&lt;br&gt;&lt;/div&gt;" style="edgeLabel;html=1;align=center;verticalAlign=middle;resizable=0;points=[];" parent="VGItp7bEPMrswfuvoWM3-1" vertex="1" connectable="0">
          <mxGeometry x="-0.6587" y="1" relative="1" as="geometry">
            <mxPoint as="offset" />
          </mxGeometry>
        </mxCell>
        <mxCell id="VGItp7bEPMrswfuvoWM3-3" style="edgeStyle=orthogonalEdgeStyle;rounded=0;orthogonalLoop=1;jettySize=auto;html=1;exitX=0.75;exitY=0;exitDx=0;exitDy=0;entryX=0.5;entryY=0;entryDx=0;entryDy=0;" parent="1" source="Taq88KEqufd_rW_u-Mmz-2" target="4pkH0n5TeCM1CugvsYnv-7" edge="1">
          <mxGeometry relative="1" as="geometry">
            <Array as="points">
              <mxPoint x="468" y="60" />
              <mxPoint x="1275" y="60" />
            </Array>
          </mxGeometry>
        </mxCell>
        <mxCell id="VGItp7bEPMrswfuvoWM3-4" value="&lt;div&gt;Port/Protocol: */*&lt;/div&gt;&lt;div&gt;Desc: LAN to anything&lt;br&gt;&lt;/div&gt;" style="edgeLabel;html=1;align=center;verticalAlign=middle;resizable=0;points=[];" parent="VGItp7bEPMrswfuvoWM3-3" vertex="1" connectable="0">
          <mxGeometry x="-0.2392" y="3" relative="1" as="geometry">
            <mxPoint as="offset" />
          </mxGeometry>
        </mxCell>
        <mxCell id="VGItp7bEPMrswfuvoWM3-7" style="edgeStyle=orthogonalEdgeStyle;rounded=0;orthogonalLoop=1;jettySize=auto;html=1;exitX=0.918;exitY=0.999;exitDx=0;exitDy=0;entryX=0;entryY=0.5;entryDx=0;entryDy=0;exitPerimeter=0;" parent="1" source="Taq88KEqufd_rW_u-Mmz-2" target="4pkH0n5TeCM1CugvsYnv-10" edge="1">
          <mxGeometry relative="1" as="geometry">
            <Array as="points">
              <mxPoint x="563" y="500" />
              <mxPoint x="660" y="500" />
              <mxPoint x="660" y="700" />
            </Array>
          </mxGeometry>
        </mxCell>
        <mxCell id="VGItp7bEPMrswfuvoWM3-8" value="&lt;div&gt;Port/Protocol: */*&lt;/div&gt;&lt;div&gt;Desc: LAN to anything&lt;br&gt;&lt;/div&gt;" style="edgeLabel;html=1;align=center;verticalAlign=middle;resizable=0;points=[];" parent="VGItp7bEPMrswfuvoWM3-7" vertex="1" connectable="0">
          <mxGeometry x="0.3805" y="1" relative="1" as="geometry">
            <mxPoint as="offset" />
          </mxGeometry>
        </mxCell>
      </root>
    </mxGraphModel>
  </diagram>
  <diagram id="gnOOa1OR_t_HMNJYe0At" name="Applications">
    <mxGraphModel dx="2074" dy="1058" grid="1" gridSize="10" guides="1" tooltips="1" connect="1" arrows="1" fold="1" page="1" pageScale="1" pageWidth="850" pageHeight="1100" math="0" shadow="0">
      <root>
        <mxCell id="0" />
        <mxCell id="1" parent="0" />
      </root>
    </mxGraphModel>
  </diagram>
</mxfile>
